<svg viewBox="0 0 20 15" fill="none" xmlns="http://www.w3.org/2000/svg">
<path d="M20 1.84436L9.99973 6.89332L0 1.84545V1.08428C0 0.485758 0.485755 0 1.08428 0H18.9157C19.5142 0 20 0.485758 20 1.08428V1.84436Z" fill="#6CBE45"/>
<path d="M10.2437 7.98416L13.3339 6.42442L18.9781 14.9935C18.9686 14.994 18.9594 14.9953 18.9502 14.9967C18.9388 14.9983 18.9274 15 18.9157 15H1.08373C1.07165 15 1.06007 14.9983 1.04852 14.9966C1.03935 14.9953 1.0302 14.994 1.02084 14.9935L6.66558 6.42442L9.75576 7.98416C9.83166 8.02319 9.91624 8.04217 9.99973 8.04217C10.0832 8.04217 10.1678 8.02319 10.2437 7.98416Z" fill="#6CBE45"/>
<path d="M14.3086 5.93268L19.8829 14.3955C19.9555 14.2502 20 14.0886 20 13.9157V3.05934L14.3086 5.93268Z" fill="#6CBE45"/>
<path d="M0 13.9157V3.06039L5.69082 5.9332L0.11656 14.3955C0.0444553 14.2502 0 14.0881 0 13.9157Z" fill="#6CBE45"/>
</svg>
