<svg viewBox="0 0 16 21" fill="none" xmlns="http://www.w3.org/2000/svg">
<path d="M8 0C5.87827 0 3.84344 0.823364 2.34315 2.28896C0.842855 3.75456 0 5.74233 0 7.815C0 14.0325 7.4856 21 7.4856 21C7.4856 21 16 13.635 16 7.815C16 6.78872 15.7931 5.77249 15.391 4.82433C14.989 3.87617 14.3997 3.01465 13.6569 2.28896C12.914 1.56327 12.0321 0.987622 11.0615 0.594881C10.0909 0.202141 9.05058 0 8 0ZM8 11.6625C7.17851 11.6625 6.37546 11.4245 5.69241 10.9787C5.00936 10.5328 4.47699 9.89915 4.16262 9.15774C3.84825 8.41633 3.76599 7.6005 3.92626 6.81342C4.08652 6.02634 4.48211 5.30337 5.063 4.73591C5.64388 4.16846 6.38397 3.78202 7.18968 3.62546C7.99539 3.4689 8.83053 3.54926 9.5895 3.85636C10.3485 4.16346 10.9972 4.68352 11.4536 5.35077C11.9099 6.01803 12.1536 6.8025 12.1536 7.605C12.1536 8.68112 11.7159 9.71316 10.937 10.4741C10.1581 11.235 9.10159 11.6625 8 11.6625Z" fill="#6CBE45"/>
</svg>
