<svg  viewBox="0 0 10 21" fill="none" xmlns="http://www.w3.org/2000/svg">
<path d="M6.55422 14.1355L6.38554 14.1595C5.80723 14.3269 5.3012 14.6139 4.86747 15.0205C3.87952 14.1595 3.37349 12.6526 3.37349 10.5C3.37349 8.34738 3.87952 6.84055 4.86747 5.9795C5.27711 6.38611 5.80723 6.69704 6.38554 6.84055L8.57831 7.29499L10 0.454441L7.95181 0.0478389L7.78313 0.0239195C7.59036 1.45948e-06 7.39759 0 7.20482 0H7.15663C3.13253 0 0 4.61617 0 10.5C0 16.3838 3.15663 21 7.15663 21C7.18072 21 7.18073 21 7.20482 21C7.39759 21 7.56626 21 7.75904 20.9761L9.97591 20.5216L8.55422 13.6811L6.55422 14.1355Z" fill="#6CBE45"/>
</svg>
