<svg width="769" height="718" fill="none" xmlns="http://www.w3.org/2000/svg"><path opacity=".8" d="M733.619 522.637c-149.731 18.821-301.443-17.457-427.423-102.183-54.051-36.457-102.792-83.383-147.036-136.882-30.051-39.01-55.804-82.133-76.433-127.326C229.68 92.162 374.684 70.492 517.542 93.694c9.238 2.217 18.477 4.434 28.327 5.215 182.9 36.77 349.777 148.991 472.061 316.084-36.253 25.34-75.596 45.981-116.177 63.553-57.193 20.711-112.962 36.089-168.134 44.091z" fill="#003820"/><path opacity=".8" d="M705.551 514.59c-165.523 15.973-331.479-28.808-467.55-126.135-58.377-41.874-110.574-95.111-157.607-155.445C48.532 189.087 21.537 140.769.25 90.335 164.152 24.418 324.56 5.156 481.178 35.253c10.105 2.735 20.21 5.471 31.035 6.644 200.293 46.314 380.538 175.225 509.917 363.16-40.733 26.76-84.724 48.245-129.982 66.311-63.655 20.995-125.572 36.162-186.597 43.222z" fill="url(#paint0_linear)" fill-opacity=".5"/><defs><linearGradient id="paint0_linear" x1="927.364" y1="460.428" x2="761.984" y2="243.447" gradientUnits="userSpaceOnUse"><stop stop-color="#6CBE45"/><stop offset="1" stop-color="#6CBE45" stop-opacity="0"/></linearGradient></defs></svg>