<svg width="159" height="120" fill="none" xmlns="http://www.w3.org/2000/svg"><path d="M158.265 33.95c-.248 13.023-.248 23.836-10.271 34.068-9.033 9.185-22.768 14.184-36.008 14.184-25.862 0-46.774-14.998-46.774-40.578C65.335 15.58 85.629 0 112.357 0c14.725 0 35.019 6.86 41.577 20.463l-28.832 9.883c-2.351-4.07-6.805-6.162-11.631-6.162-11.013 0-17.077 8.836-17.077 18.487 0 8.72 5.816 16.975 15.839 16.975 4.826 0 11.013-2.093 12.498-6.976h-13.983V33.95h47.517z" fill="#fff"/><path d="M43.186 81.97c0 6.86 1.237 14.417 10.27 14.417 4.579 0 7.92-3.023 8.786-6.976h42.443c-5.816 20.347-29.945 29.765-50.61 29.765C25.862 119.176 0 105.456 0 76.389c0-28.021 23.016-45.461 51.6-45.461 20.541 0 38.236 8.022 47.64 22.207 5.321 7.906 8.167 17.557 7.301 28.951H43.186v-.116zm20.417-17.557c0-5.697-4.455-10.93-10.642-10.93-6.558 0-9.775 5.117-9.775 10.93h20.417z" fill="#fff"/><path d="M105.895 82.176c-23.045-1.99-40.941-16.745-40.941-40.632 0-3.279.368-6.323.858-9.368 0 0 41.922 6.206 40.083 50z" fill="#70B62C"/></svg>