<svg viewBox="0 0 199 160" xmlns="http://www.w3.org/2000/svg"><path d="M178.26 53.951c-.248 13.022-.248 23.835-10.271 34.067-9.033 9.185-22.768 14.185-36.008 14.185-25.862 0-46.774-14.999-46.774-40.578.124-26.044 20.417-41.624 47.145-41.624 14.725 0 35.019 6.86 41.577 20.463l-28.832 9.883c-2.351-4.07-6.805-6.162-11.631-6.162-11.013 0-17.077 8.836-17.077 18.487 0 8.72 5.816 16.975 15.839 16.975 4.826 0 11.013-2.093 12.498-6.976h-13.983V53.95z" fill="#fff"/><path d="M63.186 101.97c0 6.86 1.238 14.417 10.271 14.417 4.578 0 7.92-3.023 8.786-6.976h42.443c-5.816 20.347-29.945 29.765-50.61 29.765-28.213 0-54.075-13.72-54.075-42.787 0-28.021 23.016-45.461 51.6-45.461 20.54 0 38.236 8.023 47.64 22.208 5.32 7.906 8.166 17.557 7.3 28.95H63.186zm20.417-17.557c0-5.697-4.455-10.929-10.642-10.929-6.558 0-9.776 5.116-9.776 10.929z" fill="#fff"/><path d="M125.9 102.18c-23.045-1.99-40.941-16.745-40.941-40.632 0-3.279.368-6.323.858-9.368 0 0 41.922 6.206 40.083 50z" fill="#70b62c"/></svg>