<svg width="85" height="36" fill="none" xmlns="http://www.w3.org/2000/svg"><path d="M34.433 15.457h.303c.034.63.314 1.15.853 1.548.538.398 1.211.608 2.02.608.785 0 1.435-.199 1.94-.597.505-.398.752-.907.752-1.526 0-.486-.168-.873-.516-1.172-.348-.298-.909-.541-1.694-.73l-1.021-.254c-.83-.199-1.437-.475-1.818-.807-.382-.332-.572-.774-.572-1.305 0-.652.28-1.205.83-1.647.55-.442 1.223-.663 1.997-.663.82 0 1.504.21 2.065.63.56.42.852.94.875 1.559h-.303c-.034-.542-.292-.995-.797-1.36-.494-.365-1.11-.542-1.84-.542-.707 0-1.301.188-1.784.575-.493.387-.729.862-.729 1.448 0 .465.168.83.516 1.117.348.288.898.52 1.66.708l1.01.243c.842.21 1.47.487 1.852.83.392.342.583.795.583 1.348 0 .708-.28 1.283-.842 1.736-.56.453-1.279.674-2.176.674-.898 0-1.638-.232-2.233-.685-.583-.442-.909-1.028-.931-1.736zm15.719-6.413v8.724h-.303V9.741h-.023l-3.579 8.027h-.325l-3.58-8.027h-.022v8.027h-.303V9.044h.326l3.736 8.348h.022l3.714-8.348h.337zm7.999 8.724l-1.155-3.03h-4.118l-1.178 3.03h-.337l3.411-8.724h.314l3.411 8.724h-.348zm-3.23-8.314l-1.93 4.997h3.892l-1.93-4.997h-.033zm5.082 4.5v3.814h-.315V9.044h2.75c.886 0 1.581.222 2.086.653.505.442.763 1.04.763 1.802 0 .641-.19 1.172-.56 1.592-.371.42-.899.697-1.56.807l2.333 3.87h-.348l-2.31-3.825c-.147.01-.281.01-.405.01h-2.434zm0-4.633v4.356h2.434c.786 0 1.414-.199 1.863-.586.449-.387.673-.918.673-1.592 0-.686-.224-1.216-.673-1.603-.449-.387-1.077-.575-1.874-.575h-2.423zm9.592 8.447h-.303V9.332h-3.197v-.288h6.687v.288h-3.198l.011 8.436zm-31.19.883c1.189 0 2.143.41 2.838 1.217.707.807 1.055 1.901 1.055 3.272 0 1.371-.348 2.466-1.055 3.273-.707.807-1.65 1.216-2.85 1.216-1.2 0-2.142-.409-2.85-1.216-.706-.807-1.054-1.902-1.054-3.273 0-1.37.348-2.454 1.055-3.272.707-.819 1.649-1.217 2.86-1.217zm0 .277c-1.1 0-1.975.376-2.626 1.139-.65.751-.976 1.78-.976 3.062 0 1.283.326 2.3.976 3.063.651.763 1.526 1.139 2.626 1.139 1.088 0 1.963-.376 2.614-1.14.65-.762.976-1.78.976-3.062 0-1.282-.325-2.3-.976-3.062-.65-.752-1.526-1.14-2.614-1.14zm5.665 4.755v3.815h-.313v-8.724h2.748c.887 0 1.582.221 2.087.653.505.442.763 1.04.763 1.802 0 .641-.19 1.172-.56 1.592-.382.42-.898.697-1.56.807l2.333 3.87h-.348l-2.31-3.826c-.147.011-.281.011-.405.011h-2.434zm0-4.632v4.356h2.435c.786 0 1.414-.199 1.863-.586.448-.387.673-.918.673-1.592 0-.685-.224-1.216-.673-1.603-.449-.387-1.077-.575-1.874-.575h-2.423zm13.038 8.447l-1.156-3.03h-4.117l-1.167 3.03h-.337l3.41-8.724h.315l3.41 8.724h-.358zm-3.22-8.315l-1.941 4.998h3.893l-1.93-4.998h-.022zm5.071 8.315h-.314v-8.724h.336l5.88 8.149h.022v-8.149h.303v8.724h-.28l-5.925-8.215h-.022v8.215zm15.034-3.417c0 1.095-.314 1.957-.942 2.588-.628.63-1.492.94-2.58.94-.741 0-1.403-.189-1.987-.576-.583-.375-1.032-.917-1.346-1.603-.325-.685-.482-1.481-.482-2.366 0-1.327.347-2.4 1.054-3.206.696-.807 1.627-1.216 2.772-1.216.875 0 1.626.243 2.266.718a3.052 3.052 0 0 1 1.2 1.869h-.302a2.848 2.848 0 0 0-1.123-1.67c-.572-.42-1.256-.63-2.041-.63-1.055 0-1.908.376-2.547 1.139-.64.763-.954 1.758-.954 3.007 0 1.26.325 2.289.976 3.074.65.785 1.492 1.183 2.536 1.183.998 0 1.784-.287 2.356-.862.572-.575.864-1.371.864-2.366v-.609h-3.254v-.276h3.557v.862h-.023zm6.597 3.129v.288h-5.07v-8.724h5.07v.288h-4.757v3.825h4.544v.277h-4.544v4.058h4.758v-.012z" fill="#fff"/><path d="M30.304 20.776l-.112-.619 1.335-2.399-1.29-2.034.505-1.25-1.234-.94-.169-2.543-2.423-1.072-.449-1.028-.718-.232-1.066-1.67-2.255.1-1.907-1.67-1.74.586-.56-.299-1.38.664-2.66-.564-1.065 1.106-.73-.1-1.043 1.581-2.962.918-.628 2.62-.528.387-.033.586-.27.255.023.353-1.795 1.935.785 2.046-.65 1.194.684 1.194-.46 2.001 1.795 1.802.202 1.581 1.156.564.807 2.422 2.727.464.92 1.172 1.312-.044 1.605 1.16 2.075-.773 2.323.895.998-.84.898.177 1.47-1.614 2.625-.31.685-1.692.493-.21.45-1.426 2.366-1.559-.291-2.598.18-.277z" fill="#727376"/><path d="M27.522 23.163l-.584 1.15 1.167-2.52-.583 1.37z" fill="#898A8D"/><path d="M23.393 28.14l-.819.32 2.334-1.68-1.515 1.36z" fill="#A0A1A3"/><path d="M29.653 16.43l-.987-3.051.898 1.614.09 1.437z" fill="#8D8E91"/><path d="M12.577 28.217l-.864-.476 2.861 1.006-1.997-.53z" fill="#6C6E70"/><path d="M30.304 20.776l-.852 1.227.605-2.742.247 1.515z" fill="#F2F2F2"/><path d="M6.945 14.407l-.023-1.25 1.425-1.37-1.402 2.62z" fill="#E5E5E5"/><path d="M24.515 27.94l1.862-1.017 1.223-.288-3.085 1.305z" fill="#A0A0A0"/><path d="M27.6 26.635l-1.223.288 1.84-2.245-.617 1.957z" fill="#CCC"/><path d="M24.964 8.525l1.503.365.718 1.647-2.221-2.012z" fill="#D8D8D8"/><path d="M23.303 7.861l3.164 1.029-1.503-.365-1.66-.664z" fill="#F2F2F2"/><path d="M7.416 23.285l1.773 2.786-1.683-.807-.09-1.979z" fill="#999"/><path d="M7.416 23.285l.09 1.98-.471-3.538.381 1.558z" fill="#A5A5A5"/><path d="M22.327 30.46l-3.142-.64 2.02.088 1.122.553z" fill="#BFBFBF"/><path d="M22.327 30.461l-1.122-.553 2.749-1.227-1.627 1.78z" fill="#D8D8D8"/><path d="M6.35 20.1l.685 1.626-1.75-3.04L6.35 20.1z" fill="#BFBFBF"/><path d="M6.103 17.149L6.35 20.1l-1.066-1.415.82-1.537z" fill="#D8D8D8"/><path d="M19.186 29.82l-3.153 1.182 2.132-.906 1.02-.277z" fill="#CCC"/><path d="M20.52 5.418l2.783 2.443-1.1-.762-1.682-1.681zm11.007 12.339l-1.48-1.559-.472-1.504 1.952 3.063z" fill="#E5E5E5"/><path d="M30.046 16.198l-.942-2.985.471 1.482.471 1.503z" fill="#808183"/><path d="M29.575 14.694l-.471-1.481.235-2.223.236 3.704z" fill="#D8D8D8"/><path d="M16.033 31.003l-1.178-1.448 3.31.541-2.132.907z" fill="#999"/><path d="M16.033 31.003l-2.94-2.134 1.762.685 1.178 1.449z" fill="#999"/><path d="M13.643 7.198l-1.784 1.04 2.323-2.433-.539 1.393zm.539-1.393l3.164.674-.999.11-2.165-.784z" fill="#F2F2F2"/><path d="M13.643 7.198l.539-1.393 2.165.785-2.704.608z" fill="#E5E5E5"/><path d="M19.242 6.468l1.279-1.05 1.683 1.68-2.962-.63z" fill="#F2F2F2"/><path d="M17.346 6.48l1.896-.012-2.895.122.999-.11z" fill="#9C9EA0"/><path d="M17.346 6.48l3.175-1.062-1.28 1.05-1.895.011z" fill="#E5E5E5"/><path d="M11.018 8.867l.841-.63 1.784-1.04-2.625 1.67z" fill="#B9B9BA"/><path d="M11.018 8.868L8.38 9.31l3.478-1.073-.841.63z" fill="#E5E5E5"/><path d="M31.527 17.757l-1.526 1.095.045-2.654 1.481 1.56z" fill="#F2F2F2"/><path d="M30.046 20.444l-.045-1.593 1.526-1.094-1.48 2.687z" fill="#E5E5E5"/><path d="M21.205 29.908l1.806-.973.943-.254-2.749 1.227z" fill="#BFBFBF"/><path d="M6.294 18.476L6.35 20.1l-.247-2.952.191 1.327z" fill="#A5A5A5"/><path d="M13.093 28.869l-1.268-.663 3.03 1.349-1.762-.686z" fill="#6E6F72"/><path d="M13.093 28.869l-3.624-.62 2.357-.043 1.267.663z" fill="#999"/><path d="M8.605 11.443L8.381 9.31l2.637-.442-2.413 2.576z" fill="#F2F2F2"/><path d="M8.605 11.444l-1.1 1.448.876-3.582.224 2.133zm17.817-1.736l2.917 1.283-1.84.276-1.077-1.559z" fill="#E5E5E5"/><path d="M27.5 11.267l1.84-.277-.236 2.223-1.605-1.946z" fill="#F2F2F2"/><path d="M14.855 29.555l1.986.199 1.323.342-3.31-.541z" fill="#CCC"/><path d="M30.416 23.65l-1.065-2.51.695-.696.37 3.206z" fill="#D8D8D8"/><path d="M29.35 21.14l.651-2.288.045 1.592-.695.696z" fill="#CCC"/><path d="M7.136 14.186l.37-1.294 1.1-1.448-1.47 2.742z" fill="#B9BABA"/><path d="M7.136 14.186l-1.986 1.26 2.356-2.554-.37 1.294z" fill="#F2F2F2"/><path d="M19.242 6.468l2.962.63-.999.155-1.963-.785z" fill="#CCC"/><path d="M21.205 7.253l.999-.155 2.48-.11-3.479.265z" fill="#F2F2F2"/><path d="M13.643 7.198l2.704-.608-.819.63-1.885-.022z" fill="#CCC"/><path d="M8.605 11.443l2.413-2.576-.786 1.227-1.627 1.35z" fill="#E5E5E5"/><path d="M9.671 25.807l2.155 2.399-2.357.044.202-2.443z" fill="#A5A5A5"/><path d="M9.671 25.806L9.47 28.25l-1.178-3.56 1.38 1.116z" fill="#B2B2B2"/><path d="M30.416 23.65l-2.244-.188 1.178-2.322 1.066 2.51z" fill="#E5E5E5"/><path d="M27.656 25.474l.517-2.012 2.243.188-2.76 1.824z" fill="#F2F2F2"/><path d="M30.046 16.198l-.617.497 1.313-2.222-.696 1.725z" fill="#CCC"/><path d="M30.001 18.852l-.572-2.156.617-.498-.045 2.654z" fill="#D8D8D8"/><path d="M28.442 13.589l.662-.376 1.638 1.26-2.3-.884z" fill="#E5E5E5"/><path d="M28.442 13.589l2.3.884-1.313 2.223-.987-3.107z" fill="#F2F2F2"/><path d="M27.5 11.267l1.604 1.946-.662.376-.943-2.322z" fill="#CCC"/><path d="M7.136 14.186l-.247 2.654-1.74-1.393 1.987-1.261z" fill="#D8D8D8"/><path d="M6.889 16.839l-.595 1.636-1.144-3.03 1.739 1.394z" fill="#B2B2B2"/><path d="M26.422 9.708l1.077 1.559-1.885-1.338.808-.221z" fill="#CCC"/><path d="M24.683 6.988l1.74 2.72-.808.22-.932-2.94z" fill="#E5E5E5"/><path d="M15.528 7.22l.819-.63 1.874-.885-2.693 1.515zm10.894 21.317l.09-3.051 1.144-.011-1.234 3.062z" fill="#D8D8D8"/><path d="M26.512 25.485l1.66-2.023-.516 2.012-1.144.011z" fill="#E5E5E5"/><path d="M20.43 31.124l-3.59-1.37 2.2-.465 1.39 1.835z" fill="#A5A5A5"/><path d="M20.43 31.124l-1.39-1.835 2.94-.785-1.55 2.62z" fill="#CCC"/><path d="M20.43 31.124l1.55-2.62 1.031.431-2.58 2.19z" fill="#E5E5E5"/><path d="M23.012 28.935l1.335-1.725 2.075 1.327-3.41.398z" fill="#CCC"/><path d="M26.422 28.537l-2.075-1.327 2.165-1.725-.09 3.052z" fill="#E5E5E5"/><path d="M21.98 28.504l2.367-1.294-1.335 1.725-1.033-.43z" fill="#D8D8D8"/><path d="M8.09 22.777l.201 1.913-2.781-2.81 2.58.896z" fill="#B2B2B2"/><path d="M9.671 25.806l-1.38-1.116-.202-1.913 1.582 3.03zM7.17 19.68l.92 3.096-2.581-.895 1.66-2.2z" fill="#999"/><path d="M7.17 19.68l-.876-1.204.595-1.637.28 2.842z" fill="#D8D8D8"/><path d="M7.17 19.68l-1.661 2.201.785-3.405.875 1.205zM23.18 8.867l1.503-1.88.931 2.942-2.434-1.062z" fill="#F2F2F2"/><path d="M21.205 7.253l3.478-.265-1.503 1.88-1.975-1.615z" fill="#E5E5E5"/><path d="M12.465 9.288l-2.233.807 2.155-3.284.078 2.477z" fill="#D8D8D8"/><path d="M16.84 29.753l-3.724.133 2.715-1.117 1.01.984z" fill="#A5A5A5"/><path d="M16.84 29.753l-1.01-.984 3.21.52-2.2.464zm-5.205-3.128l.19 1.58-2.154-2.398 1.964.818z" fill="#999"/><path d="M11.635 26.625l1.48 3.261-1.29-1.68-.19-1.581z" fill="#BFBFBF"/><path d="M12.465 9.288l-.079-2.477 2.828 1.504-2.749.973z" fill="#E5E5E5"/><path d="M12.386 6.811l3.142.41-.314 1.094-2.828-1.504zm-5.161 5.506l.82 3.008-.91-1.14.09-1.868z" fill="#D8D8D8"/><path d="M8.044 15.325L6.89 16.84l.247-2.654.908 1.139z" fill="#BFBFBF"/><path d="M21.205 7.253l1.975 1.615-2.637-.52.662-1.095z" fill="#CCC"/><path d="M18.22 5.705l2.985 1.548-.662 1.095-2.322-2.643z" fill="#D8D8D8"/><path d="M10.165 11.775l.067-1.68 2.233-.807-2.3 2.487z" fill="#F2F2F2"/><path d="M10.165 11.776l-2.94.542 3.007-2.223-.067 1.68z" fill="#D8D8D8"/><path d="M15.528 7.22l2.693-1.515-.45 2.488-2.243-.973z" fill="#F2F2F2"/><path d="M17.772 8.193l.449-2.488 2.322 2.643-2.771-.155z" fill="#E5E5E5"/><path d="M15.528 7.22l2.244.973-2.558.122.314-1.095zm12.914 6.369l.987 3.107-1.604-1.205.617-1.902z" fill="#E5E5E5"/><path d="M27.825 15.49l1.604 1.205.707 2.234-2.311-3.439z" fill="#CCC"/><path d="M28.172 23.462l-.201-2.51 1.38.188-1.178 2.322z" fill="#D8D8D8"/><path d="M29.35 21.14l-1.38-.188 2.166-2.023-.785 2.211z" fill="#F2F2F2"/><path d="M25.614 9.93l1.885 1.337.247.232-2.132-1.57z" fill="#E5E5E5"/><path d="M27.746 11.499l.696 2.09-.617 1.901-.079-3.991z" fill="#D8D8D8"/><path d="M13.901 26.978l-.785 2.908-1.481-3.261 2.266.353z" fill="#A5A5A5"/><path d="M13.901 26.978l1.93 1.791-2.715 1.117.785-2.908z" fill="#BFBFBF"/><path d="M23.18 8.867l2.434 1.062-.875 1.127-1.56-2.189z" fill="#E5E5E5"/><path d="M24.74 11.057l.874-1.128 2.132 1.57-3.007-.442z" fill="#F2F2F2"/><path d="M19.04 29.289l1.155-1.604 1.784.819-2.94.785z" fill="#D8D8D8"/><path d="M19.04 29.289l-1.1.365 2.255-1.968-1.155 1.603z" fill="#E5E5E5"/><path d="M8.875 20.919l-.786 1.857-.92-3.095 1.706 1.238z" fill="#BFBFBF"/><path d="M9.694 14.285l-1.65 1.04-.819-3.008 2.469 1.968z" fill="#CCC"/><path d="M10.165 11.775l-.471 2.51-2.469-1.968 2.94-.542z" fill="#E5E5E5"/><path d="M24.347 27.21l.336-2.31 1.83.585-2.166 1.725z" fill="#D8D8D8"/><path d="M27.825 15.49l2.31 3.439-3.174-1.316.864-2.123z" fill="#F2F2F2"/><path d="M26.96 17.613l3.176 1.316-2.165 2.023-1.01-3.339zM12.465 9.287l2.749-.973-.73 1.957-2.019-.984z" fill="#D8D8D8"/><path d="M27.825 15.49l-.864 2.123-1.122-3.549 1.986 1.426z" fill="#CCC"/><path d="M27.746 11.499l.079 3.991-1.986-1.426 1.907-2.565z" fill="#F2F2F2"/><path d="M24.74 11.057l3.006.442-1.907 2.565-1.1-3.007z" fill="#D8D8D8"/><path d="M8.987 24.623l2.648 2.001-1.964-.818-.684-1.183zm-.112-3.704l.112 3.704-.898-1.847.786-1.857z" fill="#A5A5A5"/><path d="M16.874 27.133l1.066 2.52-2.11-.884 1.044-1.636z" fill="#B2B2B2"/><path d="M16.874 27.133l-1.043 1.636-1.93-1.791 2.973.155z" fill="#999"/><path d="M16.874 27.133l3.321.553-2.255 1.968-1.066-2.521z" fill="#D8D8D8"/><path d="M7.08 17.813l1.795 3.106-1.706-1.238-.09-1.869z" fill="#B2B2B2"/><path d="M8.044 15.324l-.964 2.488-.191-.973 1.155-1.515z" fill="#F2F2F2"/><path d="M7.08 17.812l.09 1.869-.281-2.842.19.973z" fill="#A5A5A5"/><path d="M11.377 9.929l1.088-.641 2.02.984-3.108-.343z" fill="#E5E5E5"/><path d="M26.512 25.485l-1.829-.585 2.783-1.327-.954 1.912zm1.66-2.023l-.706.11.505-2.62.201 2.51z" fill="#CCC"/><path d="M26.512 25.485l.954-1.912.706-.111-1.66 2.023zm-8.74-17.292l2.771.155-.864 1.548-1.907-1.703z" fill="#D8D8D8"/><path d="M12.61 24.756l-.975 1.868-2.648-2.001 3.624.133z" fill="#BFBFBF"/><path d="M13.901 26.978l-2.266-.354.976-1.868 1.29 2.222z" fill="#999"/><path d="M12.106 12.848l-2.412 1.437.47-2.51 1.942 1.073zm-.729-2.918l3.107.342-2.378 2.576-.73-2.919z" fill="#D8D8D8"/><path d="M11.377 9.93l.729 2.918-1.941-1.072 1.212-1.847z" fill="#E5E5E5"/><path d="M21.98 28.504l-1.785-.818 2.884-.266-1.1 1.084zm2.367-1.294l-1.268.21 1.604-2.52-.336 2.31z" fill="#BFBFBF"/><path d="M21.98 28.504l1.099-1.084 1.268-.21-2.368 1.294z" fill="#E5E5E5"/><path d="M10.086 16.618l-2.042-1.293 1.65-1.04.392 2.333z" fill="#BFBFBF"/><path d="M10.086 16.618L7.08 17.812l.964-2.488 2.042 1.294z" fill="#E5E5E5"/><path d="M19.68 9.896l.863-1.548 2.311 1.105-3.175.443z" fill="#F2F2F2"/><path d="M20.543 8.348l2.637.52-.326.585-2.31-1.105z" fill="#D8D8D8"/><path d="M22.854 9.453l.326-.586 1.56 2.19-1.886-1.604z" fill="#CCC"/><path d="M26.96 17.613l1.01 3.34-2.445-1.117 1.436-2.223z" fill="#E5E5E5"/><path d="M25.525 19.836l2.446 1.117-.505 2.62-1.941-3.737z" fill="#F2F2F2"/><path d="M11.4 22.124l-2.413 2.499-.112-3.704 2.524 1.205z" fill="#BFBFBF"/><path d="M11.4 22.125l1.21 2.631-3.623-.133 2.412-2.498z" fill="#A5A5A5"/><path d="M24.74 11.057l1.099 3.007-2.547-1.017 1.447-1.99z" fill="#E5E5E5"/><path d="M22.854 9.454l1.885 1.603-1.447 1.99-.438-3.593z" fill="#F2F2F2"/><path d="M19.242 25.585l3.837 1.835-2.884.266-.953-2.101z" fill="#A5A5A5"/><path d="M19.242 25.585l.953 2.1-3.32-.552 2.367-1.548z" fill="#BFBFBF"/><path d="M11.4 22.124L8.874 20.92l1.739-1.548.785 2.753z" fill="#999"/><path d="M10.086 16.619l.528 2.753-3.534-1.56 3.006-1.193z" fill="#B2B2B2"/><path d="M10.614 19.372l-1.74 1.547-1.794-3.107 3.534 1.56z" fill="#A5A5A5"/><path d="M16.987 8.878l.785-.685 1.907 1.703-2.692-1.018z" fill="#CCC"/><path d="M15.214 8.314l2.558-.121-.786.685-1.772-.564z" fill="#D8D8D8"/><path d="M14.485 10.271l.729-1.957 1.772.564-2.502 1.393z" fill="#F2F2F2"/><path d="M25.525 19.836l1.94 3.737-3.735-1.614 1.795-2.123z" fill="#E5E5E5"/><path d="M23.73 21.959l3.736 1.614-2.783 1.326-.953-2.94zm-2.177 2.023l3.13.918-1.604 2.52-1.526-3.438z" fill="#CCC"/><path d="M21.553 23.982l1.526 3.439-3.837-1.836 2.31-1.603z" fill="#B2B2B2"/><path d="M23.73 21.959l.953 2.94-3.13-.917 2.177-2.023z" fill="#BFBFBF"/><path d="M14.485 10.272l2.502-1.393-2.076 3.66-.426-2.267z" fill="#E5E5E5"/><path d="M14.485 10.272l.426 2.267-2.805.31 2.379-2.577z" fill="#CCC"/><path d="M19.68 9.896l3.174-.442-2.322 2.918-.853-2.476z" fill="#D8D8D8"/><path d="M22.855 9.454l.437 3.593-2.76-.675 2.323-2.918z" fill="#E5E5E5"/><path d="M16.986 8.879l.64 3.25-2.715.41 2.075-3.66z" fill="#BFBFBF"/><path d="M16.987 8.879l2.692 1.017-2.053 2.233-.64-3.25z" fill="#E5E5E5"/><path d="M19.68 9.896l.852 2.477-2.906-.244 2.053-2.233z" fill="#CCC"/><path d="M14.372 22.887l-1.761 1.869-1.212-2.631 2.973.762z" fill="#999"/><path d="M21.553 23.982l-2.311 1.603-1.392-2.267 3.703.664z" fill="#A5A5A5"/><path d="M12.69 17.658l-2.076 1.714-.528-2.753 2.603 1.039z" fill="#999"/><path d="M15.225 25.983l1.65 1.15-2.974-.155 1.324-.995z" fill="#BFBFBF"/><path d="M14.372 22.887l3.478.431-2.625 2.665-.853-3.096z" fill="#BFBFBF"/><path d="M17.85 23.318l1.392 2.267-4.017.398 2.625-2.665z" fill="#999"/><path d="M15.225 25.983l4.017-.398-2.368 1.548-1.649-1.15z" fill="#B2B2B2"/><path d="M14.372 22.887l.853 3.096-2.614-1.227 1.761-1.869z" fill="#A5A5A5"/><path d="M15.225 25.983l-1.324.995-1.29-2.222 2.614 1.227z" fill="#B2B2B2"/><path d="M25.525 19.835l-1.795 2.123-1.347-3.36 3.142 1.238z" fill="#CCC"/><path d="M17.626 12.129l-2.625 2.897-.09-2.488 2.715-.41z" fill="#B2B2B2"/><path d="M23.292 13.047l-2.064 2.267-.696-2.941 2.76.674z" fill="#D8D8D8"/><path d="M25.839 14.064l1.122 3.55-1.851-1.648.729-1.902zm-2.547-1.017l1.817 2.919-3.882-.652 2.065-2.267z" fill="#E5E5E5"/><path d="M23.292 13.047l2.547 1.017-.73 1.902-1.817-2.92z" fill="#D8D8D8"/><path d="M25.11 15.966l.415 3.87-3.142-1.238 2.727-2.632z" fill="#F2F2F2"/><path d="M25.11 15.966l1.85 1.648-1.435 2.222-.415-3.87zm-3.883-.653l3.883.653-2.727 2.631-1.155-3.284z" fill="#D8D8D8"/><path d="M11.511 14.86l3.49.166-2.312 2.632-1.178-2.798z" fill="#BFBFBF"/><path d="M14.91 12.539l.09 2.487-3.489-.166 3.4-2.321z" fill="#D8D8D8"/><path d="M11.511 14.86l1.178 2.798-2.603-1.04 1.425-1.758z" fill="#A5A5A5"/><path d="M11.511 14.86l-1.425 1.758-.392-2.333 1.817.575z" fill="#B2B2B2"/><path d="M12.106 12.848l-.595 2.012-1.817-.575 2.412-1.437z" fill="#F2F2F2"/><path d="M12.106 12.848l2.805-.31-3.4 2.322.595-2.012z" fill="#E5E5E5"/><path d="M16.706 20.576l1.144 2.742-3.478-.431 2.334-2.31z" fill="#A5A5A5"/><path d="M15 15.026l.696 2.776-3.007-.144 2.312-2.632zm4.006 2.842l-2.3 2.709-1.01-2.776 3.31.067z" fill="#999"/><path d="M21.228 15.313l1.155 3.284-3.377-.73 2.222-2.554z" fill="#CCC"/><path d="M12.891 20.665l3.815-.089-2.334 2.311-1.48-2.222z" fill="#BFBFBF"/><path d="M12.891 20.665l1.481 2.222-2.973-.762 1.492-1.46zm-.201-3.008l.201 3.008-2.277-1.294 2.075-1.714z" fill="#A5A5A5"/><path d="M12.891 20.665l-1.492 1.46-.785-2.754 2.277 1.294z" fill="#BFBFBF"/><path d="M15.696 17.801l1.01 2.776-3.815.088 2.805-2.864z" fill="#A5A5A5"/><path d="M12.69 17.657l3.006.144-2.805 2.864-.202-3.008z" fill="#B2B2B2"/><path d="M17.918 14.33l3.31.984-2.222 2.554-1.088-3.538z" fill="#D8D8D8"/><path d="M20.532 12.373l.695 2.94-3.31-.983 2.615-1.957z" fill="#F2F2F2"/><path d="M17.626 12.129l2.906.243-2.614 1.957-.292-2.2z" fill="#BFBFBF"/><path d="M17.918 14.33l1.088 3.538-3.31-.067 2.222-3.471z" fill="#A5A5A5"/><path d="M17.626 12.129l.292 2.2-2.917.697 2.625-2.897z" fill="#F2F2F2"/><path d="M15 15.026l2.918-.696-2.222 3.471-.695-2.775z" fill="#B2B2B2"/><path d="M22.383 18.597l1.347 3.361-3.3-.563 1.953-2.798z" fill="#F2F2F2"/><path d="M20.43 21.395l3.3.563-2.177 2.024-1.122-2.587z" fill="#D8D8D8"/><path d="M19.006 17.868l1.425 3.527-3.725-.819 2.3-2.708z" fill="#B2B2B2"/><path d="M19.006 17.868l3.377.73-1.952 2.797-1.425-3.527z" fill="#D8D8D8"/><path d="M20.431 21.395l1.122 2.587-3.703-.664 2.581-1.924z" fill="#BFBFBF"/><path d="M16.706 20.576l3.725.818-2.58 1.924-1.145-2.742z" fill="#999"/><path d="M7.225 5.197L9.828 6.29l.965 2.3-3.568-3.394z" fill="#727272"/><path d="M10.232 5.33l.561 3.26-.965-2.299-.897-1.946 1.301.984z" fill="#A5A5A5"/><path d="M5.318 4.345l1.907.852L9.828 6.29l-.897-1.946H5.318z" fill="#8C8C8C"/><path d="M7.371 2.952l1.56 1.393H5.318l2.053-1.393z" fill="#B2B2B2"/><path d="M4.398 2.952h2.973L5.318 4.345l-.92-1.393z" fill="#BFBFBF"/><path d="M7.371 2.952l2.009.144-1.818-1.139-3.164.995h2.973z" fill="#8C8C8C"/><path d="M10.333 3.096H9.38L7.562 1.957l2.771 1.139z" fill="#A5A5A5"/><path d="M10.232 5.33L9.38 3.095l-2.01-.143 1.56 1.393 1.301.984zm1.111 3.095l-1.11-3.095.56 3.261.55-.166z" fill="#727272"/><path d="M10.333 3.096l1.01 5.329-1.11-3.096-.853-2.233h.953z" fill="#8C8C8C"/></svg>