<svg width="71" height="71" fill="none" xmlns="http://www.w3.org/2000/svg"><path d="M28.19 48.9c.15.08.32.13.49.13.18 0 .37-.05.53-.15l21.53-13.35c.29-.18.47-.5.47-.85s-.18-.67-.47-.85L29.21 20.48c-.31-.19-.7-.2-1.01-.02-.32.18-.51.51-.51.87v26.7c-.01.36.19.7.5.87zm1.49-25.77l18.64 11.55-18.64 11.55v-23.1z" fill="#fff"/><path d="M35.4 64.17c15.86 0 28.77-12.91 28.77-28.77S51.26 6.63 35.4 6.63 6.63 19.54 6.63 35.4s12.9 28.77 28.77 28.77zm0-55.54c14.76 0 26.77 12.01 26.77 26.77S50.16 62.17 35.4 62.17 8.63 50.16 8.63 35.4 20.64 8.63 35.4 8.63z" fill="#fff"/><path d="M35.4 70.8c19.52 0 35.4-15.88 35.4-35.4C70.8 15.88 54.92 0 35.4 0 15.88 0 0 15.88 0 35.4c0 19.52 15.88 35.4 35.4 35.4zm0-68.8c18.42 0 33.4 14.98 33.4 33.4 0 18.42-14.98 33.4-33.4 33.4C16.98 68.8 2 53.82 2 35.4 2 16.98 16.98 2 35.4 2z" fill="#fff"/><path d="M35.4 13.43c8.49 0 16.07 4.75 19.78 12.39.76 1.57 1.33 3.23 1.7 4.93.33 1.52.49 3.08.49 4.65 0 .55.45 1 1 1s1-.45 1-1a23.803 23.803 0 0 0-2.4-10.46c-3.99-8.21-12.46-13.52-21.58-13.52-.55 0-1 .45-1 1s.45 1.01 1.01 1.01z" fill="#fff"/></svg>