<svg width="27" height="27" fill="none" xmlns="http://www.w3.org/2000/svg"><path fill-rule="evenodd" clip-rule="evenodd" d="M13.716 26.998C21.072 26.883 27 20.884 27 13.5 27 6.044 20.956 0 13.5 0 20.957 0 27 6.045 27 13.5c0 7.383-5.928 13.384-13.284 13.498zm-.129.002h-.086C6.046 27 0 20.955 0 13.5S6.045 0 13.501 0H13.5C6.044 0 0 6.044 0 13.5S6.044 27 13.5 27h.087zm5.962-6.22l1.08-1.082c.396-.394.574-1.153.398-1.684l-.076-.23c-.178-.531-.764-1.085-1.305-1.234l-1.995-.545c-.541-.147-1.312.051-1.71.448l-.721.722a7.666 7.666 0 0 1-5.39-5.392l.721-.722c.396-.395.593-1.167.447-1.709l-.544-1.995c-.147-.54-.704-1.128-1.234-1.306l-.228-.075c-.532-.178-1.292.001-1.687.398L6.224 7.455c-.193.191-.317.74-.317.742a12.772 12.772 0 0 0 3.735 9.162 12.757 12.757 0 0 0 9.13 3.733c.019 0 .584-.12.777-.313z" fill="#fff"/></svg>