<svg width="769" height="718" viewBox="0 0 769 718" fill="none" xmlns="http://www.w3.org/2000/svg">
<path opacity="0.8" d="M733.619 522.637C583.888 541.458 432.176 505.18 306.196 420.454C252.145 383.997 203.404 337.071 159.16 283.572C129.109 244.562 103.356 201.439 82.7274 156.246C229.68 92.1625 374.684 70.4922 517.542 93.6942C526.78 95.9113 536.019 98.1285 545.869 98.9092C728.769 135.679 895.646 247.9 1017.93 414.993C981.677 440.333 942.334 460.974 901.753 478.546C844.56 499.257 788.791 514.635 733.619 522.637Z" fill="#003820"/>
<path opacity="0.8" d="M705.551 514.59C540.028 530.563 374.072 485.782 238.001 388.455C179.624 346.581 127.427 293.344 80.3936 233.01C48.5324 189.087 21.5368 140.769 0.251113 90.3347C164.152 24.4178 324.56 5.15639 481.178 35.2526C491.283 37.9883 501.388 40.724 512.213 41.897C712.506 88.2106 892.751 217.122 1022.13 405.057C981.397 431.817 937.406 453.302 892.148 471.368C828.493 492.363 766.576 507.53 705.551 514.59Z" fill="url(#paint0_linear)" fill-opacity="0.5"/>
<defs>
<linearGradient id="paint0_linear" x1="927.364" y1="460.428" x2="761.984" y2="243.447" gradientUnits="userSpaceOnUse">
<stop stop-color="#6CBE45"/>
<stop offset="1" stop-color="#6CBE45" stop-opacity="0"/>
</linearGradient>
</defs>
</svg>
