<svg width="159" height="120" viewBox="0 0 159 120" fill="none" xmlns="http://www.w3.org/2000/svg">
<path d="M158.265 33.9507C158.017 46.9729 158.017 57.7859 147.994 68.0176C138.961 77.2029 125.226 82.2025 111.986 82.2025C86.1239 82.2025 65.2117 67.2038 65.2117 41.6245C65.3354 15.5801 85.629 0 112.357 0C127.082 0 147.376 6.8599 153.934 20.4634L125.102 30.3463C122.751 26.2769 118.297 24.1841 113.471 24.1841C102.458 24.1841 96.3944 33.0205 96.3944 42.6709C96.3944 51.3911 102.21 59.6462 112.233 59.6462C117.059 59.6462 123.246 57.5534 124.731 52.6701H110.748V33.9507H158.265Z" fill="white"/>
<path d="M43.1856 81.9699C43.1856 88.8298 44.4231 96.3873 53.4562 96.3873C58.0346 96.3873 61.3756 93.3643 62.2418 89.4112H104.685C98.8691 109.758 74.7396 119.176 54.0749 119.176C25.8619 119.176 0 105.456 0 76.389C0 48.368 23.0158 30.9276 51.6 30.9276C72.1411 30.9276 89.836 38.9502 99.2404 53.1351C104.561 61.0414 107.407 70.6918 106.541 82.0862H43.1856V81.9699ZM63.6029 64.4132C63.6029 58.716 59.1482 53.4839 52.9612 53.4839C46.4029 53.4839 43.1856 58.5997 43.1856 64.4132H63.6029Z" fill="white"/>
<path d="M105.895 82.1761C82.8504 80.1855 64.954 65.4314 64.954 41.5438C64.954 38.2651 65.3217 35.2206 65.812 32.1761C65.812 32.1761 107.734 38.3822 105.895 82.1761Z" fill="#70B62C"/>
</svg>
