<svg version="1.1" viewBox="0 0 199 160" xmlns="http://www.w3.org/2000/svg">
	<path d="m178.26 53.951c-0.248 13.022-0.248 23.835-10.271 34.067-9.033 9.1853-22.768 14.185-36.008 14.185-25.862 0-46.774-14.999-46.774-40.578 0.1237-26.044 20.417-41.624 47.145-41.624 14.725 0 35.019 6.8599 41.577 20.463l-28.832 9.8829c-2.351-4.0694-6.805-6.1622-11.631-6.1622-11.013 0-17.077 8.8364-17.077 18.487 0 8.7202 5.8156 16.975 15.839 16.975 4.826 0 11.013-2.0928 12.498-6.9761h-13.983v-18.719z" fill="#fff"/>
	<path d="m63.186 101.97c0 6.8599 1.2375 14.417 10.271 14.417 4.5784 0 7.9194-3.023 8.7856-6.9761h42.443c-5.8159 20.347-29.945 29.765-50.61 29.765-28.213 0-54.075-13.72-54.075-42.787 0-28.021 23.016-45.461 51.6-45.461 20.541 0 38.236 8.0226 47.64 22.208 5.3206 7.9063 8.1666 17.557 7.3006 28.951h-63.355zm20.417-17.557c0-5.6972-4.4547-10.929-10.642-10.929-6.5583 0-9.7756 5.1158-9.7756 10.929z" fill="#fff"/>
	<path d="m125.9 102.18c-23.045-1.9906-40.941-16.745-40.941-40.632 0-3.2787 0.3677-6.3232 0.858-9.3677 0 0 41.922 6.2061 40.083 50z" fill="#70b62c"/>
</svg>
