<svg width="71" height="71" viewBox="0 0 71 71" fill="none" xmlns="http://www.w3.org/2000/svg">
<path d="M28.1901 48.9C28.3401 48.98 28.5101 49.03 28.6801 49.03C28.8601 49.03 29.0501 48.98 29.2101 48.88L50.7401 35.53C51.0301 35.35 51.2101 35.03 51.2101 34.68C51.2101 34.33 51.0301 34.01 50.7401 33.83L29.2101 20.48C28.9001 20.29 28.5101 20.28 28.2001 20.46C27.8801 20.64 27.6901 20.97 27.6901 21.33V48.03C27.6801 48.39 27.8801 48.73 28.1901 48.9ZM29.6801 23.13L48.3201 34.68L29.6801 46.23V23.13Z" fill="white"/>
<path d="M35.4 64.1699C51.26 64.1699 64.17 51.2599 64.17 35.3999C64.17 19.5399 51.26 6.62988 35.4 6.62988C19.54 6.62988 6.63 19.5399 6.63 35.3999C6.63 51.2599 19.53 64.1699 35.4 64.1699ZM35.4 8.62988C50.16 8.62988 62.17 20.6399 62.17 35.3999C62.17 50.1599 50.16 62.1699 35.4 62.1699C20.64 62.1699 8.63 50.1599 8.63 35.3999C8.63 20.6399 20.64 8.62988 35.4 8.62988Z" fill="white"/>
<path d="M35.4 70.8C54.92 70.8 70.8 54.92 70.8 35.4C70.8 15.88 54.92 0 35.4 0C15.88 0 0 15.88 0 35.4C0 54.92 15.88 70.8 35.4 70.8ZM35.4 2C53.82 2 68.8 16.98 68.8 35.4C68.8 53.82 53.82 68.8 35.4 68.8C16.98 68.8 2 53.82 2 35.4C2 16.98 16.98 2 35.4 2Z" fill="white"/>
<path d="M35.4 13.4299C43.89 13.4299 51.47 18.1799 55.18 25.8199C55.94 27.3899 56.51 29.0499 56.88 30.7499C57.21 32.2699 57.37 33.8299 57.37 35.3999C57.37 35.9499 57.82 36.3999 58.37 36.3999C58.92 36.3999 59.37 35.9499 59.37 35.3999C59.37 33.6899 59.19 31.9799 58.83 30.3199C58.43 28.4599 57.8 26.6499 56.97 24.9399C52.98 16.7299 44.51 11.4199 35.39 11.4199C34.84 11.4199 34.39 11.8699 34.39 12.4199C34.39 12.9699 34.84 13.4299 35.4 13.4299Z" fill="white"/>
</svg>
