<svg width="27" height="27" viewBox="0 0 27 27" fill="none" xmlns="http://www.w3.org/2000/svg">
<path fill-rule="evenodd" clip-rule="evenodd" d="M13.7157 26.9983C21.0721 26.8831 27 20.8838 27 13.5C27 6.04431 20.9561 0.000255913 13.5005 8.12656e-09C13.5006 8.12656e-09 13.5008 0 13.5009 0C20.9562 0 27.0009 6.04469 27.0008 13.5C27.0008 20.8834 21.072 26.8836 13.7157 26.9983ZM13.5873 26.9997C13.5585 26.9999 13.5298 27 13.5009 27C6.04565 27 0.000976562 20.9552 0.000976562 13.5C0.000976562 6.04485 6.0454 0.000255926 13.5005 8.12656e-09C13.5003 8.12656e-09 13.5002 0 13.5 0C6.04416 0 0 6.04416 0 13.5C0 20.9558 6.04416 27 13.5 27C13.5291 27 13.5582 26.9999 13.5873 26.9997ZM19.5489 20.7791L20.6298 19.698C21.0253 19.3042 21.2035 18.5446 21.0272 18.0139L20.9513 17.7832C20.7735 17.2527 20.1868 16.699 19.6461 16.5504L17.6508 16.0048C17.1098 15.8584 16.3388 16.056 15.9415 16.4533L15.22 17.1753C12.5963 16.465 10.538 14.4064 9.82945 11.7831L10.5512 11.0613C10.9466 10.6657 11.1444 9.89443 10.9977 9.35227L10.454 7.35671C10.3074 6.81611 9.75021 6.22932 9.21951 6.05142L8.99215 5.97558C8.4599 5.79751 7.70011 5.97708 7.30458 6.37445L6.22372 7.45548C6.03091 7.64645 5.90715 8.19534 5.90715 8.1969C5.87104 11.628 7.21577 14.9322 9.64153 17.3594C12.0607 19.7787 15.3532 21.1219 18.7727 21.0921C18.7908 21.0921 19.3559 20.9718 19.5489 20.7791Z" fill="white"/>
</svg>
